<?xml version="1.0" encoding="UTF-8" standalone="no"?>
<!-- Generator: Adobe Illustrator 15.1.0, SVG Export Plug-In . SVG Version: 6.00 Build 0)  -->

<svg
   xmlns:dc="http://purl.org/dc/elements/1.1/"
   xmlns:cc="http://creativecommons.org/ns#"
   xmlns:rdf="http://www.w3.org/1999/02/22-rdf-syntax-ns#"
   xmlns:svg="http://www.w3.org/2000/svg"
   xmlns="http://www.w3.org/2000/svg"
   xmlns:sodipodi="http://sodipodi.sourceforge.net/DTD/sodipodi-0.dtd"
   xmlns:inkscape="http://www.inkscape.org/namespaces/inkscape"
   version="1.1"
   id="Layer_1"
   x="0px"
   y="0px"
   width="680px"
   height="385px"
   viewBox="0 0 680 385"
   enable-background="new 0 0 680 385"
   xml:space="preserve"
   inkscape:version="0.91 r13725"
   sodipodi:docname="logo-lituus-5_[Converted].svg"><metadata
     id="metadata27"><rdf:RDF><cc:Work
         rdf:about=""><dc:format>image/svg+xml</dc:format><dc:type
           rdf:resource="http://purl.org/dc/dcmitype/StillImage" /><dc:title></dc:title></cc:Work></rdf:RDF></metadata><defs
     id="defs25"><inkscape:perspective
       sodipodi:type="inkscape:persp3d"
       inkscape:vp_x="0 : 192.5 : 1"
       inkscape:vp_y="0 : 1000 : 0"
       inkscape:vp_z="680 : 192.5 : 1"
       inkscape:persp3d-origin="340 : 128.33333 : 1"
       id="perspective4168" /><filter
       inkscape:collect="always"
       style="color-interpolation-filters:sRGB"
       id="filter4329"
       x="-0.0094204228"
       width="1.0188408"
       y="-0.016525015"
       height="1.03305"><feGaussianBlur
         inkscape:collect="always"
         stdDeviation="2.5885787"
         id="feGaussianBlur4331" /></filter></defs><sodipodi:namedview
     pagecolor="#ffffff"
     bordercolor="#666666"
     borderopacity="1"
     objecttolerance="10"
     gridtolerance="10"
     guidetolerance="10"
     inkscape:pageopacity="0"
     inkscape:pageshadow="2"
     inkscape:window-width="1366"
     inkscape:window-height="713"
     id="namedview23"
     showgrid="false"
     inkscape:zoom="0.43344727"
     inkscape:cx="112.32214"
     inkscape:cy="88.649716"
     inkscape:window-x="0"
     inkscape:window-y="26"
     inkscape:window-maximized="1"
     inkscape:current-layer="g3" /><g
     id="g3"><g
       style="fill:#372d88;fill-opacity:0.91256833;filter:url(#filter4329)"
       id="g4303"><line
         x1="182.74153"
         y1="284.17865"
         x2="182.74153"
         y2="284.18866"
         id="line4305"
         style="clip-rule:evenodd;fill:#372d88;fill-rule:evenodd;fill-opacity:0.91256833" /><g
         style="fill:#372d88;fill-opacity:0.91256833"
         id="g4307"
         transform="translate(145.55932,-174.55509)"><path
           d="m -4.887296,514.56712 20.229839,0 0,-245.74943 -21.19356,-14.6822 z m 0,-278.31862 20.229839,0 0,-30.37918 -20.229839,0 z"
           id="path4309"
           inkscape:connector-curvature="0"
           style="clip-rule:evenodd;fill:#372d88;fill-rule:evenodd;fill-opacity:0.91256833"
           sodipodi:nodetypes="cccccccccc" /><path
           d="m 169.50891,515.99847 0,-10.94595 -47.01328,0 c -20.02419,0 -23.50666,-9.46556 -23.50666,-14.89366 l 0,-175.58387 40.91899,0 0,-10.94594 -40.04837,0 0,-51.14095 -22.113645,0 0,51.14095 -35.695264,0 0,10.94594 35.695264,0 0,175.58387 c 0,16.50865 17.15115,25.83961 44.749685,25.83961 l 47.01328,0 z"
           id="path4311"
           inkscape:connector-curvature="0"
           style="clip-rule:evenodd;fill:#372d88;fill-rule:evenodd;fill-opacity:0.91256833" /><path
           d="m 221.57479,519.26118 52.56229,0 c 18.15474,0 31.18005,-10.87024 31.18005,-25.5718 l 0,-185.32871 -25.76427,-0.62639 11.70154,185.9551 c 0.50347,8.0009 -7.66533,14.70156 -17.11732,14.70156 l -52.56229,0 c -9.45198,0 -17.11732,-6.68252 -17.11732,-14.70156 l 11.70154,-185.32871 -25.76426,0 0,185.32871 c 0,14.70156 13.02531,25.5718 31.18004,25.5718 z"
           id="path4313"
           inkscape:connector-curvature="0"
           style="clip-rule:evenodd;fill:#372d88;fill-rule:evenodd;fill-opacity:0.91256833"
           sodipodi:nodetypes="sssccssssccss" /><path
           d="m 479.2636,511.50024 25.88912,0 c 14.29908,0 17.71484,-3.65325 17.71484,-14.30948 0,-26.01109 -5.43545,-39.08993 -16.46012,-45.8681 -11.9905,-7.23905 -40.07662,-17.01265 -40.07662,-34.88543 0,-4.75483 0.94228,-5.87891 6.71374,-5.87891 l 25.39442,0 c 11.9905,0 12.93278,1.12408 12.93278,4.51877 l 11.4958,0 c 0,-8.98136 -12.43808,-10.00426 -24.42858,-10.00426 l -25.39442,0 c -13.78083,0 -18.20954,3.65323 -18.20954,12.94935 0,20.80662 8.65394,32.52534 12.47017,35.02077 14.86445,9.27362 44.06657,20.62093 44.06657,46.64327 0,4.51877 -0.47114,6.32854 -6.21904,6.32854 l -25.88912,0 c -11.4958,0 -12.93278,-1.12407 -12.93278,-4.51878 l -11.4958,0 c 0,8.98136 12.43808,10.00426 24.42858,10.00426 z"
           id="path4315"
           inkscape:connector-curvature="0"
           style="clip-rule:evenodd;fill:#372d88;fill-rule:evenodd;fill-opacity:0.91256833"
           sodipodi:nodetypes="ssscsssccssscsssccs" /><path
           sodipodi:nodetypes="sssccssssccss"
           style="clip-rule:evenodd;fill:#372d88;fill-rule:evenodd;fill-opacity:0.91256833"
           inkscape:connector-curvature="0"
           id="path4317"
           d="m 357.78688,517.53087 48.83161,0 c 16.86618,0 28.967,-8.30086 28.967,-19.52744 l 0,-141.52295 -23.93561,-0.47833 10.871,142.00128 c 0.46774,6.10974 -7.12127,11.22658 -15.90239,11.22658 l -48.83161,0 c -8.78111,0 -15.90239,-5.10299 -15.90239,-11.22658 l 10.87101,-141.52295 -23.93561,0 0,141.52295 c 0,11.22658 12.10082,19.52744 28.96699,19.52744 z" /></g><path
         style="clip-rule:evenodd;fill:#372d88;fill-rule:evenodd;fill-opacity:0.91256833"
         d="m 76.78125,5.4940923 c -0.49294,0.00695 -0.96454,0.2071739 -1.71875,0.5283636 -3.58652,4.0167511 -5.88291,8.7711611 -10.70117,12.0661151 -9.69274,6.53227 -40.45346,15.103254 -39.17969,15.843741 -0.25706,20.614421 21.16975,51.395374 13.92383,69.695568 -6.47796,16.73849 -18.77989,32.08208 -24.02344,49.59795 -5.70526,15.18983 -8.43294,34.25026 -3.75781,51.54427 10.81804,41.74432 65.97742,34.22399 41.12695,85.90234 -2.34942,4.84966 4.83088,25.05131 3.2793,28.27647 -3.12151,6.49653 -12.94851,28.871 -2.64258,36.17319 l 94.58789,24.95892 c 0.68752,0.17023 12.4688,3.81981 10.22266,-1.5779 -2.24614,-5.39772 -58.473961,-29.53696 -68.33985,-34.21788 -9.4546,-4.48745 -21.93731,-12.19512 -10.26953,-36.46792 1.54685,-3.23815 6.78267,-20.92048 8.60938,-28.16685 5.212446,-17.64934 -3.5999,-33.30306 -8.10742,-44.30172 C 77.02641,227.48517 68.1702,222.17505 63.38281,215.18463 45.26177,191.92174 48.62996,181.52273 58.71484,160.67865 61.04119,155.86223 84.14028,118.09823 86.45508,113.29838 97.268567,90.929521 105.87047,52.948184 93.871094,27.405036 90.36964,21.236624 85.88497,10.401097 80.83398,7.4152536 78.4834,6.0096347 77.60282,5.482649 76.78125,5.4940923 Z M 75.28906,23.841272 c 12.1121,-0.221894 9.16992,7.33732 8.27539,8.602993 -0.83523,4.461797 -0.78084,4.32664 -2.95898,8.779115 -1.53325,3.178935 10.96584,13.066432 8.93359,13.913594 -10.38245,-2.061609 -50.97883,-7.315969 -54.76758,-9.544704 -2.50345,-1.504868 -2.98634,-3.839523 -4.72656,-6.919057 2.01124,-0.856507 41.85185,-13.92723 43.90039,-14.778026 0.4673,-0.02804 0.91496,-0.04606 1.34375,-0.05392 z m 8.27539,8.602993 c 0.05786,-0.309043 0.08851,-0.461457 0.15625,-0.819503 -0.32865,0.691253 -0.40792,1.003931 -0.34961,1.018989 0.03232,0.0097 0.10618,-0.07613 0.19336,-0.199486 z M 44.2832,59.448354 c 5.82574,1.394559 17.28446,4.14134 21.06641,6.399678 13.86765,8.233657 7.82367,55.725018 -6.95899,84.583218 4.90743,-13.56529 12.82395,-34.95031 8.34961,-45.85806 -10.82976,22.37251 -4.71662,53.63989 -29.29882,65.73102 14.16566,-22.54203 19.77989,-55.92308 21.66015,-60.9488 12.36291,-32.97945 -6.47837,-35.595169 -7.16601,-44.231631 0,0 2.40173,22.885267 -2.63477,42.222421 -4.04535,15.493 -19.2998,39.24751 -20.83984,42.45604 -10.07334,20.82746 14.01701,55.61841 23.89062,65.64298 3.25714,3.23214 1.83264,24.21888 0.76172,29.82203 -5.21245,-7.19036 -12.43164,-38.01347 -12.43164,-38.01347 -7.96944,10.62658 -2.90001,10.2384 -7.58008,18.10816 -2.43322,-11.82713 -9.29485,-25.08063 -10.47265,-36.12107 -2.03699,0.83419 -5.51189,15.72217 -6.26563,17.32279 4.6187,-36.54315 -0.58508,-44.67448 10.2793,-67.09687 2.33108,-4.80345 15.69218,-25.69295 18.01172,-30.47979 1.52377,-3.20491 2.48826,-25.254866 1.29687,-36.236086 1.06205,-5.530964 -0.68149,-8.622393 -1.66797,-13.30256 z m 29.97852,183.629966 4.61523,22.82031 -6.3457,8.49156 6.3457,6.89929 -10.95898,11.14417 -3.46094,14.33054 -1.1543,-12.73825 2.30665,-15.39087 4.61523,-22.28834 4.03711,-13.26841 z m -11.53516,89.69074 8.65235,6.89928 5.76757,10.08386 11.53516,10.61401 -17.88086,-7.96141 -1.73047,-7.95961 -11.53515,-1.59228 5.1914,-10.08385 z"
         id="path4319"
         inkscape:connector-curvature="0" /></g><g
       id="g4170"
       style="fill:#ffffff"><line
         style="clip-rule:evenodd;fill:#ffffff;fill-rule:evenodd"
         id="line5"
         y2="284.18866"
         x2="182.74153"
         y1="284.17865"
         x1="182.74153" /><g
         transform="translate(145.55932,-174.55509)"
         id="g7"
         style="fill:#ffffff"><path
           sodipodi:nodetypes="cccccccccc"
           style="clip-rule:evenodd;fill:#ffffff;fill-rule:evenodd"
           inkscape:connector-curvature="0"
           id="path11"
           d="m -4.887296,514.56712 20.229839,0 0,-245.74943 -21.19356,-14.6822 z m 0,-278.31862 20.229839,0 0,-30.37918 -20.229839,0 z" /><path
           style="clip-rule:evenodd;fill:#ffffff;fill-rule:evenodd"
           inkscape:connector-curvature="0"
           id="path13"
           d="m 169.50891,515.99847 0,-10.94595 -47.01328,0 c -20.02419,0 -23.50666,-9.46556 -23.50666,-14.89366 l 0,-175.58387 40.91899,0 0,-10.94594 -40.04837,0 0,-51.14095 -22.113645,0 0,51.14095 -35.695264,0 0,10.94594 35.695264,0 0,175.58387 c 0,16.50865 17.15115,25.83961 44.749685,25.83961 l 47.01328,0 z" /><path
           sodipodi:nodetypes="sssccssssccss"
           style="clip-rule:evenodd;fill:#ffffff;fill-rule:evenodd"
           inkscape:connector-curvature="0"
           id="path15"
           d="m 221.57479,519.26118 52.56229,0 c 18.15474,0 31.18005,-10.87024 31.18005,-25.5718 l 0,-185.32871 -25.76427,-0.62639 11.70154,185.9551 c 0.50347,8.0009 -7.66533,14.70156 -17.11732,14.70156 l -52.56229,0 c -9.45198,0 -17.11732,-6.68252 -17.11732,-14.70156 l 11.70154,-185.32871 -25.76426,0 0,185.32871 c 0,14.70156 13.02531,25.5718 31.18004,25.5718 z" /><path
           sodipodi:nodetypes="ssscsssccssscsssccs"
           style="clip-rule:evenodd;fill:#ffffff;fill-rule:evenodd"
           inkscape:connector-curvature="0"
           id="path19"
           d="m 479.2636,511.50024 25.88912,0 c 14.29908,0 17.71484,-3.65325 17.71484,-14.30948 0,-26.01109 -5.43545,-39.08993 -16.46012,-45.8681 -11.9905,-7.23905 -40.07662,-17.01265 -40.07662,-34.88543 0,-4.75483 0.94228,-5.87891 6.71374,-5.87891 l 25.39442,0 c 11.9905,0 12.93278,1.12408 12.93278,4.51877 l 11.4958,0 c 0,-8.98136 -12.43808,-10.00426 -24.42858,-10.00426 l -25.39442,0 c -13.78083,0 -18.20954,3.65323 -18.20954,12.94935 0,20.80662 8.65394,32.52534 12.47017,35.02077 14.86445,9.27362 44.06657,20.62093 44.06657,46.64327 0,4.51877 -0.47114,6.32854 -6.21904,6.32854 l -25.88912,0 c -11.4958,0 -12.93278,-1.12407 -12.93278,-4.51878 l -11.4958,0 c 0,8.98136 12.43808,10.00426 24.42858,10.00426 z" /><path
           d="m 357.78688,517.53087 48.83161,0 c 16.86618,0 28.967,-8.30086 28.967,-19.52744 l 0,-141.52295 -23.93561,-0.47833 10.871,142.00128 c 0.46774,6.10974 -7.12127,11.22658 -15.90239,11.22658 l -48.83161,0 c -8.78111,0 -15.90239,-5.10299 -15.90239,-11.22658 l 10.87101,-141.52295 -23.93561,0 0,141.52295 c 0,11.22658 12.10082,19.52744 28.96699,19.52744 z"
           id="path4155"
           inkscape:connector-curvature="0"
           style="clip-rule:evenodd;fill:#ffffff;fill-rule:evenodd"
           sodipodi:nodetypes="sssccssssccss" /></g><path
         inkscape:connector-curvature="0"
         id="path21"
         d="m 76.78125,5.4940923 c -0.49294,0.00695 -0.96454,0.2071739 -1.71875,0.5283636 -3.58652,4.0167511 -5.88291,8.7711611 -10.70117,12.0661151 -9.69274,6.53227 -40.45346,15.103254 -39.17969,15.843741 -0.25706,20.614421 21.16975,51.395374 13.92383,69.695568 -6.47796,16.73849 -18.77989,32.08208 -24.02344,49.59795 -5.70526,15.18983 -8.43294,34.25026 -3.75781,51.54427 10.81804,41.74432 65.97742,34.22399 41.12695,85.90234 -2.34942,4.84966 4.83088,25.05131 3.2793,28.27647 -3.12151,6.49653 -12.94851,28.871 -2.64258,36.17319 l 94.58789,24.95892 c 0.68752,0.17023 12.4688,3.81981 10.22266,-1.5779 -2.24614,-5.39772 -58.473961,-29.53696 -68.33985,-34.21788 -9.4546,-4.48745 -21.93731,-12.19512 -10.26953,-36.46792 1.54685,-3.23815 6.78267,-20.92048 8.60938,-28.16685 5.212446,-17.64934 -3.5999,-33.30306 -8.10742,-44.30172 C 77.02641,227.48517 68.1702,222.17505 63.38281,215.18463 45.26177,191.92174 48.62996,181.52273 58.71484,160.67865 61.04119,155.86223 84.14028,118.09823 86.45508,113.29838 97.268567,90.929521 105.87047,52.948184 93.871094,27.405036 90.36964,21.236624 85.88497,10.401097 80.83398,7.4152536 78.4834,6.0096347 77.60282,5.482649 76.78125,5.4940923 Z M 75.28906,23.841272 c 12.1121,-0.221894 9.16992,7.33732 8.27539,8.602993 -0.83523,4.461797 -0.78084,4.32664 -2.95898,8.779115 -1.53325,3.178935 10.96584,13.066432 8.93359,13.913594 -10.38245,-2.061609 -50.97883,-7.315969 -54.76758,-9.544704 -2.50345,-1.504868 -2.98634,-3.839523 -4.72656,-6.919057 2.01124,-0.856507 41.85185,-13.92723 43.90039,-14.778026 0.4673,-0.02804 0.91496,-0.04606 1.34375,-0.05392 z m 8.27539,8.602993 c 0.05786,-0.309043 0.08851,-0.461457 0.15625,-0.819503 -0.32865,0.691253 -0.40792,1.003931 -0.34961,1.018989 0.03232,0.0097 0.10618,-0.07613 0.19336,-0.199486 z M 44.2832,59.448354 c 5.82574,1.394559 17.28446,4.14134 21.06641,6.399678 13.86765,8.233657 7.82367,55.725018 -6.95899,84.583218 4.90743,-13.56529 12.82395,-34.95031 8.34961,-45.85806 -10.82976,22.37251 -4.71662,53.63989 -29.29882,65.73102 14.16566,-22.54203 19.77989,-55.92308 21.66015,-60.9488 12.36291,-32.97945 -6.47837,-35.595169 -7.16601,-44.231631 0,0 2.40173,22.885267 -2.63477,42.222421 -4.04535,15.493 -19.2998,39.24751 -20.83984,42.45604 -10.07334,20.82746 14.01701,55.61841 23.89062,65.64298 3.25714,3.23214 1.83264,24.21888 0.76172,29.82203 -5.21245,-7.19036 -12.43164,-38.01347 -12.43164,-38.01347 -7.96944,10.62658 -2.90001,10.2384 -7.58008,18.10816 -2.43322,-11.82713 -9.29485,-25.08063 -10.47265,-36.12107 -2.03699,0.83419 -5.51189,15.72217 -6.26563,17.32279 4.6187,-36.54315 -0.58508,-44.67448 10.2793,-67.09687 2.33108,-4.80345 15.69218,-25.69295 18.01172,-30.47979 1.52377,-3.20491 2.48826,-25.254866 1.29687,-36.236086 1.06205,-5.530964 -0.68149,-8.622393 -1.66797,-13.30256 z m 29.97852,183.629966 4.61523,22.82031 -6.3457,8.49156 6.3457,6.89929 -10.95898,11.14417 -3.46094,14.33054 -1.1543,-12.73825 2.30665,-15.39087 4.61523,-22.28834 4.03711,-13.26841 z m -11.53516,89.69074 8.65235,6.89928 5.76757,10.08386 11.53516,10.61401 -17.88086,-7.96141 -1.73047,-7.95961 -11.53515,-1.59228 5.1914,-10.08385 z"
         style="clip-rule:evenodd;fill:#ffffff;fill-rule:evenodd" /></g><g
       style="fill:#372d88;fill-opacity:0;opacity:1"
       id="g4285"><line
         x1="182.74153"
         y1="284.17865"
         x2="182.74153"
         y2="284.18866"
         id="line4287"
         style="clip-rule:evenodd;fill:#372d88;fill-rule:evenodd;fill-opacity:0" /><g
         style="fill:#372d88;fill-opacity:0"
         id="g4289"
         transform="translate(145.55932,-174.55509)"><path
           d="m -4.887296,514.56712 20.229839,0 0,-245.74943 -21.19356,-14.6822 z m 0,-278.31862 20.229839,0 0,-30.37918 -20.229839,0 z"
           id="path4291"
           inkscape:connector-curvature="0"
           style="clip-rule:evenodd;fill:#372d88;fill-rule:evenodd;fill-opacity:0"
           sodipodi:nodetypes="cccccccccc" /><path
           d="m 169.50891,515.99847 0,-10.94595 -47.01328,0 c -20.02419,0 -23.50666,-9.46556 -23.50666,-14.89366 l 0,-175.58387 40.91899,0 0,-10.94594 -40.04837,0 0,-51.14095 -22.113645,0 0,51.14095 -35.695264,0 0,10.94594 35.695264,0 0,175.58387 c 0,16.50865 17.15115,25.83961 44.749685,25.83961 l 47.01328,0 z"
           id="path4293"
           inkscape:connector-curvature="0"
           style="clip-rule:evenodd;fill:#372d88;fill-rule:evenodd;fill-opacity:0" /><path
           d="m 221.57479,519.26118 52.56229,0 c 18.15474,0 31.18005,-10.87024 31.18005,-25.5718 l 0,-185.32871 -25.76427,-0.62639 11.70154,185.9551 c 0.50347,8.0009 -7.66533,14.70156 -17.11732,14.70156 l -52.56229,0 c -9.45198,0 -17.11732,-6.68252 -17.11732,-14.70156 l 11.70154,-185.32871 -25.76426,0 0,185.32871 c 0,14.70156 13.02531,25.5718 31.18004,25.5718 z"
           id="path4295"
           inkscape:connector-curvature="0"
           style="clip-rule:evenodd;fill:#372d88;fill-rule:evenodd;fill-opacity:0"
           sodipodi:nodetypes="sssccssssccss" /><path
           d="m 479.2636,511.50024 25.88912,0 c 14.29908,0 17.71484,-3.65325 17.71484,-14.30948 0,-26.01109 -5.43545,-39.08993 -16.46012,-45.8681 -11.9905,-7.23905 -40.07662,-17.01265 -40.07662,-34.88543 0,-4.75483 0.94228,-5.87891 6.71374,-5.87891 l 25.39442,0 c 11.9905,0 12.93278,1.12408 12.93278,4.51877 l 11.4958,0 c 0,-8.98136 -12.43808,-10.00426 -24.42858,-10.00426 l -25.39442,0 c -13.78083,0 -18.20954,3.65323 -18.20954,12.94935 0,20.80662 8.65394,32.52534 12.47017,35.02077 14.86445,9.27362 44.06657,20.62093 44.06657,46.64327 0,4.51877 -0.47114,6.32854 -6.21904,6.32854 l -25.88912,0 c -11.4958,0 -12.93278,-1.12407 -12.93278,-4.51878 l -11.4958,0 c 0,8.98136 12.43808,10.00426 24.42858,10.00426 z"
           id="path4297"
           inkscape:connector-curvature="0"
           style="clip-rule:evenodd;fill:#372d88;fill-rule:evenodd;fill-opacity:0"
           sodipodi:nodetypes="ssscsssccssscsssccs" /><path
           sodipodi:nodetypes="sssccssssccss"
           style="clip-rule:evenodd;fill:#372d88;fill-rule:evenodd;fill-opacity:0"
           inkscape:connector-curvature="0"
           id="path4299"
           d="m 357.78688,517.53087 48.83161,0 c 16.86618,0 28.967,-8.30086 28.967,-19.52744 l 0,-141.52295 -23.93561,-0.47833 10.871,142.00128 c 0.46774,6.10974 -7.12127,11.22658 -15.90239,11.22658 l -48.83161,0 c -8.78111,0 -15.90239,-5.10299 -15.90239,-11.22658 l 10.87101,-141.52295 -23.93561,0 0,141.52295 c 0,11.22658 12.10082,19.52744 28.96699,19.52744 z" /></g><path
         style="clip-rule:evenodd;fill:#372d88;fill-rule:evenodd;fill-opacity:0"
         d="m 76.78125,5.4940923 c -0.49294,0.00695 -0.96454,0.2071739 -1.71875,0.5283636 -3.58652,4.0167511 -5.88291,8.7711611 -10.70117,12.0661151 -9.69274,6.53227 -40.45346,15.103254 -39.17969,15.843741 -0.25706,20.614421 21.16975,51.395374 13.92383,69.695568 -6.47796,16.73849 -18.77989,32.08208 -24.02344,49.59795 -5.70526,15.18983 -8.43294,34.25026 -3.75781,51.54427 10.81804,41.74432 65.97742,34.22399 41.12695,85.90234 -2.34942,4.84966 4.83088,25.05131 3.2793,28.27647 -3.12151,6.49653 -12.94851,28.871 -2.64258,36.17319 l 94.58789,24.95892 c 0.68752,0.17023 12.4688,3.81981 10.22266,-1.5779 -2.24614,-5.39772 -58.473961,-29.53696 -68.33985,-34.21788 -9.4546,-4.48745 -21.93731,-12.19512 -10.26953,-36.46792 1.54685,-3.23815 6.78267,-20.92048 8.60938,-28.16685 5.212446,-17.64934 -3.5999,-33.30306 -8.10742,-44.30172 C 77.02641,227.48517 68.1702,222.17505 63.38281,215.18463 45.26177,191.92174 48.62996,181.52273 58.71484,160.67865 61.04119,155.86223 84.14028,118.09823 86.45508,113.29838 97.268567,90.929521 105.87047,52.948184 93.871094,27.405036 90.36964,21.236624 85.88497,10.401097 80.83398,7.4152536 78.4834,6.0096347 77.60282,5.482649 76.78125,5.4940923 Z M 75.28906,23.841272 c 12.1121,-0.221894 9.16992,7.33732 8.27539,8.602993 -0.83523,4.461797 -0.78084,4.32664 -2.95898,8.779115 -1.53325,3.178935 10.96584,13.066432 8.93359,13.913594 -10.38245,-2.061609 -50.97883,-7.315969 -54.76758,-9.544704 -2.50345,-1.504868 -2.98634,-3.839523 -4.72656,-6.919057 2.01124,-0.856507 41.85185,-13.92723 43.90039,-14.778026 0.4673,-0.02804 0.91496,-0.04606 1.34375,-0.05392 z m 8.27539,8.602993 c 0.05786,-0.309043 0.08851,-0.461457 0.15625,-0.819503 -0.32865,0.691253 -0.40792,1.003931 -0.34961,1.018989 0.03232,0.0097 0.10618,-0.07613 0.19336,-0.199486 z M 44.2832,59.448354 c 5.82574,1.394559 17.28446,4.14134 21.06641,6.399678 13.86765,8.233657 7.82367,55.725018 -6.95899,84.583218 4.90743,-13.56529 12.82395,-34.95031 8.34961,-45.85806 -10.82976,22.37251 -4.71662,53.63989 -29.29882,65.73102 14.16566,-22.54203 19.77989,-55.92308 21.66015,-60.9488 12.36291,-32.97945 -6.47837,-35.595169 -7.16601,-44.231631 0,0 2.40173,22.885267 -2.63477,42.222421 -4.04535,15.493 -19.2998,39.24751 -20.83984,42.45604 -10.07334,20.82746 14.01701,55.61841 23.89062,65.64298 3.25714,3.23214 1.83264,24.21888 0.76172,29.82203 -5.21245,-7.19036 -12.43164,-38.01347 -12.43164,-38.01347 -7.96944,10.62658 -2.90001,10.2384 -7.58008,18.10816 -2.43322,-11.82713 -9.29485,-25.08063 -10.47265,-36.12107 -2.03699,0.83419 -5.51189,15.72217 -6.26563,17.32279 4.6187,-36.54315 -0.58508,-44.67448 10.2793,-67.09687 2.33108,-4.80345 15.69218,-25.69295 18.01172,-30.47979 1.52377,-3.20491 2.48826,-25.254866 1.29687,-36.236086 1.06205,-5.530964 -0.68149,-8.622393 -1.66797,-13.30256 z m 29.97852,183.629966 4.61523,22.82031 -6.3457,8.49156 6.3457,6.89929 -10.95898,11.14417 -3.46094,14.33054 -1.1543,-12.73825 2.30665,-15.39087 4.61523,-22.28834 4.03711,-13.26841 z m -11.53516,89.69074 8.65235,6.89928 5.76757,10.08386 11.53516,10.61401 -17.88086,-7.96141 -1.73047,-7.95961 -11.53515,-1.59228 5.1914,-10.08385 z"
         id="path4301"
         inkscape:connector-curvature="0" /></g></g></svg>